<?xml version="1.0" encoding="UTF-8"?>
<svg width="84px" height="20px" viewBox="0 0 84 20" version="1.1" xmlns="http://www.w3.org/2000/svg" xmlns:xlink="http://www.w3.org/1999/xlink">
    <title>Claro drive</title>
    <g id="Claro-drive" stroke="none" stroke-width="1" fill="none" fill-rule="evenodd">
        <g id="53cde93b-22b8-4249-96a8-36158b8eb318-Claro+Drive-Copy" transform="translate(0.000000, 3.000000)" fill-rule="nonzero">
            <path d="M34.3959,10.0958 C33.9559,10.5588 33.4161,10.7763 32.7766,10.7763 C32.1549,10.7763 31.6151,10.5563 31.1751,10.0958 C30.7325,9.6353 30.492,9.0929 30.492,8.4713 C30.492,7.8112 30.7325,7.2689 31.1751,6.8263 C31.6151,6.3684 32.1549,6.1458 32.7766,6.1663 C33.4187,6.1458 33.9559,6.3684 34.4164,6.8263 C34.8385,7.2689 35.0585,7.8087 35.079,8.4713 C35.0585,9.0929 34.8385,9.6353 34.3959,10.0958 Z M35.8593,5.363 C34.9971,4.50085 33.9559,4.07873 32.7766,4.07873 C31.5946,4.07873 30.5739,4.50085 29.7348,5.363 C28.8726,6.2251 28.4531,7.2689 28.4531,8.4713 C28.4531,9.6762 28.8726,10.7174 29.7348,11.5591 C30.5739,12.4213 31.5972,12.8638 32.7766,12.8638 C33.9559,12.8638 34.9971,12.4238 35.8593,11.5591 C36.7009,10.7174 37.1205,9.6762 37.1205,8.4713 C37.1205,7.2689 36.7009,6.2277 35.8593,5.363 Z" id="Shape" fill="#E13404"></path>
            <path d="M5.36469,1.9349 C3.86299,1.91444 2.62223,2.43633 1.58101,3.51847 C0.51933,4.58016 0,5.8439 0,7.3482 C0,8.8294 0.51933,10.1367 1.58101,11.1984 C2.62223,12.2396 3.86555,12.7615 5.36469,12.7615 C6.56452,12.7615 7.66714,12.4008 8.629,11.6563 C9.5705,10.894 10.1921,9.9525 10.5094,8.7885 L8.3272,8.7885 C8.0458,9.3513 7.64667,9.8118 7.14525,10.1725 C6.58499,10.5153 6.00426,10.6944 5.36469,10.6944 C4.44372,10.6944 3.66344,10.3542 3.02132,9.712 C2.36384,9.0495 2.0415,8.2717 2.06197,7.3456 C2.0415,6.4221 2.36384,5.6393 3.02132,4.97925 C3.66344,4.33712 4.44372,3.99687 5.36469,3.99687 C6.00426,3.99687 6.58499,4.17595 7.14525,4.53666 C7.64667,4.87947 8.0458,5.3604 8.3272,5.9207 L10.5094,5.9207 C10.1896,4.75668 9.5679,3.79477 8.629,3.05543 C7.66714,2.29562 6.56452,1.91444 5.36469,1.9349 Z" id="Path" fill="#E13404"></path>
            <path d="M19.4608,8.7732 L19.8624,8.5557 L19.8624,9.3974 C19.8624,10.1163 19.6603,10.6177 19.2817,10.8991 C18.88,11.1805 18.4605,11.3212 17.9795,11.3212 C17.6802,11.3212 17.4397,11.2393 17.2402,11.0807 C17.0406,10.8991 16.9383,10.6407 16.9383,10.257 C16.9383,9.8374 17.102,9.5355 17.4397,9.313 C17.6393,9.1927 17.9795,9.0929 18.4221,9.0315 L19.4608,8.7732 Z M18.5807,4.06083 C17.1762,4.04036 16.1964,4.42155 15.6361,5.1634 C15.2754,5.6239 15.0964,6.2277 15.0375,6.9875 L17.1199,6.9875 C17.1583,6.6268 17.2811,6.3863 17.4193,6.2251 C17.6393,5.9437 18,5.8005 18.5219,5.8235 C18.9619,5.803 19.2996,5.8823 19.5426,6.0256 C19.7805,6.1458 19.8829,6.3889 19.9033,6.7265 C19.9033,7.0054 19.7422,7.228 19.4224,7.3687 L17.8209,7.6296 C17.079,7.7294 16.4804,7.9085 16.0199,8.172 C15.2396,8.6325 14.8584,9.3744 14.8789,10.4386 C14.8584,11.1779 15.1015,11.7791 15.5799,12.2217 C15.9994,12.5824 16.5801,12.782 17.2837,12.805 C18.4247,12.782 19.3226,12.5031 19.9673,11.9403 L19.9673,12.805 L22.0497,12.805 L22.0497,6.6677 C22.0497,5.6649 21.689,4.9639 21.0085,4.60318 C20.282,4.222 19.4812,4.04036 18.5807,4.06083 Z" id="Shape" fill="#E13404"></path>
            <polygon id="Path" fill="#E13404" points="13.656 1.9349 11.5711 1.9349 11.5711 12.8024 13.656 12.8024"></polygon>
            <path d="M26.9104,4.36015 C26.3527,4.58016 25.8513,4.96134 25.4292,5.5421 L25.4292,4.47782 L23.4466,4.45992 L23.4466,12.8024 L25.5111,12.8024 L25.5111,8.8115 C25.5111,8.1285 25.5904,7.6501 25.7746,7.3482 C25.9127,7.0284 26.1737,6.7675 26.4935,6.5475 C26.8542,6.3044 27.2328,6.1842 27.6344,6.1842 L28.274,6.2251 L28.2535,4.0992 L27.7137,4.13757 L26.9104,4.36015 Z" id="Path" fill="#E13404"></path>
            <circle id="Oval" fill="#000000" cx="55.4561" cy="1.86994" r="1.29205"></circle>
            <path d="M46.2158,12.9021 L46.2158,1.29663 L44.0968,1.29663 L44.0968,5.1597 C43.5426,4.54028 42.8906,4.31209 42.0267,4.31209 C41.1954,4.31209 40.4294,4.60548 39.9567,5.0782 C39.1091,5.9258 39.0928,7.3764 39.0928,8.6478 C39.0928,9.9192 39.1091,11.3862 39.9567,12.2338 C40.4294,12.7065 41.2117,12.9999 42.043,12.9999 C42.9395,12.9999 43.5589,12.7554 44.1457,12.1034 L44.1457,12.9021 L46.2158,12.9021 Z M44.0968,8.6478 C44.0968,10.0333 43.9175,11.0928 42.6461,11.0928 C41.3747,11.0928 41.2117,10.0333 41.2117,8.6478 C41.2117,7.2623 41.3747,6.2192 42.6461,6.2192 C43.9175,6.2192 44.0968,7.2623 44.0968,8.6478 Z" id="Shape" fill="#000000"></path>
            <path d="M53.9834,5.1108 C53.3966,4.52398 52.8098,4.31209 51.9785,4.31209 C51.0657,4.31209 50.2507,4.73588 49.8432,5.2249 L49.8432,4.40989 L47.7732,4.40989 L47.7732,12.9021 L49.8921,12.9021 L49.8921,7.7839 C49.8921,6.7082 50.6093,6.2192 51.2613,6.2192 C51.7829,6.2192 52.06,6.3985 52.386,6.7245 L53.9834,5.1108 Z" id="Path" fill="#000000"></path>
            <polygon id="Path" fill="#000000" points="56.4948 12.9021 56.4948 4.40989 54.3758 4.40989 54.3758 12.9021"></polygon>
            <polygon id="Path" fill="#000000" points="64.8304 4.40989 62.5973 4.40989 60.8858 9.6584 59.158 4.40989 56.925 4.40989 60.0545 12.9021 61.7171 12.9021"></polygon>
            <path d="M72.0902,9.3161 L72.0902,8.3707 C72.0902,6.0399 70.7537,4.31209 68.3902,4.31209 C66.1897,4.31209 64.6902,5.8769 64.6902,8.6478 C64.6902,12.0871 66.6135,12.9999 68.6184,12.9999 C70.1506,12.9999 70.9819,12.5272 71.8457,11.6633 L70.5581,10.4082 C70.0202,10.9461 69.5638,11.2069 68.6347,11.2069 C67.4448,11.2069 66.7765,10.4082 66.7765,9.3161 L72.0902,9.3161 Z M70.0039,7.8654 L66.7765,7.8654 C66.7928,7.4905 66.8417,7.2623 66.9721,6.9526 C67.2003,6.4474 67.673,6.0725 68.3902,6.0725 C69.1074,6.0725 69.5801,6.4474 69.8083,6.9526 C69.9387,7.2623 69.9876,7.4905 70.0039,7.8654 Z" id="Shape" fill="#000000"></path>
        </g>
    </g>
</svg>