<svg width="20" height="20" viewBox="0 0 20 20" fill="none" xmlns="http://www.w3.org/2000/svg">
<g clip-path="url(#clip0)">
<path d="M9.99924 19.9985C15.5217 19.9985 19.9985 15.5217 19.9985 9.99927C19.9985 4.47682 15.5217 0 9.99924 0C4.47679 0 -3.05176e-05 4.47682 -3.05176e-05 9.99927C-3.05176e-05 15.5217 4.47679 19.9985 9.99924 19.9985Z" fill="url(#paint0_radial)"/>
<path d="M9.99924 19.9985C15.5217 19.9985 19.9985 15.5217 19.9985 9.99927C19.9985 4.47682 15.5217 0 9.99924 0C4.47679 0 -3.05176e-05 4.47682 -3.05176e-05 9.99927C-3.05176e-05 15.5217 4.47679 19.9985 9.99924 19.9985Z" fill="url(#paint1_radial)"/>
<path d="M12.1874 15.64H7.8131C5.90931 15.64 4.35992 14.0906 4.35992 12.1869V7.81255C4.35992 5.90876 5.90931 4.35938 7.8131 4.35938H12.1859C14.0897 4.35938 15.6391 5.90876 15.6391 7.81255V12.1854C15.6406 14.0906 14.0912 15.64 12.1874 15.64ZM7.8131 5.20436C6.37501 5.20436 5.20345 6.37446 5.20345 7.81401V12.1869C5.20345 13.625 6.37354 14.7965 7.8131 14.7965H12.1859C13.624 14.7965 14.7956 13.6264 14.7956 12.1869V7.81255C14.7956 6.37446 13.6255 5.2029 12.1859 5.2029H7.8131V5.20436Z" fill="white"/>
<path d="M9.99949 12.8532C8.42667 12.8532 7.14674 11.5732 7.14674 10.0004C7.14674 8.4276 8.42667 7.14767 9.99949 7.14767C11.5723 7.14767 12.8522 8.4276 12.8522 10.0004C12.8537 11.5732 11.5738 12.8532 9.99949 12.8532ZM9.99949 8.01169C8.90262 8.01169 8.01077 8.90354 8.01077 10.0004C8.01077 11.0973 8.90262 11.9891 9.99949 11.9891C11.0964 11.9891 11.9882 11.0973 11.9882 10.0004C11.9882 8.90354 11.0964 8.01169 9.99949 8.01169Z" fill="white"/>
<path d="M13.9066 6.83571C13.9066 7.24576 13.5742 7.57819 13.1642 7.57819C12.7541 7.57819 12.4217 7.24576 12.4217 6.83571C12.4217 6.42566 12.7541 6.09323 13.1642 6.09323C13.5742 6.09323 13.9066 6.42566 13.9066 6.83571Z" fill="white"/>
</g>
<defs>
<radialGradient id="paint0_radial" cx="0" cy="0" r="1" gradientUnits="userSpaceOnUse" gradientTransform="translate(-2.18534 27.0096) scale(41.6951)">
<stop stop-color="#F9ED41"/>
<stop offset="0.2412" stop-color="#FF833D"/>
<stop offset="0.401" stop-color="#EE5568"/>
<stop offset="0.4888" stop-color="#E7407B"/>
<stop offset="1" stop-color="#0028FF"/>
</radialGradient>
<radialGradient id="paint1_radial" cx="0" cy="0" r="1" gradientUnits="userSpaceOnUse" gradientTransform="translate(-2.18534 27.0096) scale(41.6951)">
<stop stop-color="#F9ED41"/>
<stop offset="0.2412" stop-color="#FF833D"/>
<stop offset="0.401" stop-color="#EE5568"/>
<stop offset="0.4888" stop-color="#E7407B"/>
<stop offset="1" stop-color="#0028FF"/>
</radialGradient>
<clipPath id="clip0">
<path d="M-3.05176e-05 0H20V20H-3.05176e-05V0Z" fill="white"/>
</clipPath>
</defs>
</svg>
