<svg width="175" height="44" viewBox="0 0 175 44" fill="none" xmlns="http://www.w3.org/2000/svg">
<circle cx="166" cy="35" r="8" fill="#EE122C" stroke="#EE122C" stroke-linecap="round"/>
<path d="M167.106 33.9509H170V35.9208H167.106V39H164.902V35.9208H162V33.9509H164.902V31H167.106V33.9509Z" fill="white"/>
<path d="M24.1222 1.86711C24.093 1.64379 24.0161 1.44609 23.8916 1.28867C23.7671 1.12759 23.5987 1.00678 23.39 0.922573C23.196 0.845692 22.9654 0.809082 22.7091 0.809082H20.1903C19.7986 0.809082 19.4472 0.853014 19.1543 0.933556C18.8504 1.01776 18.5722 1.15688 18.3269 1.34359C18.0853 1.52664 17.8619 1.76094 17.6642 2.04284C17.4775 2.31009 17.2872 2.6286 17.1078 2.97639L11.4223 12.8281L9.84071 3.08622C9.80044 2.69449 9.73088 2.35402 9.62837 2.07212C9.51854 1.76826 9.3538 1.51565 9.14146 1.32528C8.92912 1.13491 8.65455 0.995793 8.33238 0.918912C8.03218 0.845692 7.66974 0.809082 7.25239 0.809082H5.03017C4.7922 0.809082 4.56522 0.845692 4.35654 0.918912C4.14421 0.992132 3.95384 1.10562 3.78543 1.2484C3.62435 1.38752 3.48523 1.56691 3.37174 1.77924C3.26557 1.9806 3.18869 2.21124 3.13743 2.46385L0.0292522 18.0524C-0.0183407 18.2098 -0.00735776 18.3635 0.0585401 18.4953C0.124438 18.6308 0.252573 18.7333 0.435622 18.8065C0.57474 18.8614 0.76145 18.898 1.00674 18.9237C1.46436 18.9713 2.28076 18.9713 2.74937 18.9237C2.99466 18.898 3.18869 18.8614 3.33879 18.8102C3.52184 18.7479 3.65363 18.6601 3.74882 18.5466C3.83668 18.4404 3.8916 18.3159 3.92089 18.1842L6.47992 5.39631L8.3214 18.1585C8.33604 18.4258 8.53008 18.6381 8.89251 18.7846C9.18539 18.9017 9.6357 18.9603 10.2617 18.9603C10.8585 18.9603 11.3124 18.92 11.6492 18.8358C12.0446 18.7406 12.3155 18.5356 12.4547 18.25L19.5973 5.45122L17.0785 18.0743C17.0492 18.2208 17.0602 18.3599 17.1151 18.4807C17.1773 18.6235 17.3018 18.7333 17.4922 18.8029C17.635 18.8578 17.8217 18.8944 18.0633 18.92C18.2903 18.9456 18.5868 18.9566 18.9456 18.9566C19.2824 18.9566 19.5753 18.9456 19.8133 18.92C20.0622 18.8944 20.2562 18.8578 20.41 18.8065C20.5967 18.7443 20.7285 18.6528 20.8164 18.5356C20.8896 18.4368 20.9445 18.3269 20.9811 18.2061C20.9848 18.1988 20.9848 18.1915 20.9884 18.1805L24.1039 2.54073C24.1405 2.29545 24.1479 2.0648 24.1222 1.86711Z" fill="#EE122C"/>
<path d="M30.7852 17.3861L30.6425 18.111C30.6132 18.2684 30.6278 18.4075 30.6827 18.5284C30.745 18.6638 30.8695 18.7663 31.0452 18.8322C31.177 18.8798 31.3381 18.9164 31.5394 18.9347C31.7261 18.953 31.9641 18.964 32.2533 18.964C32.8391 18.964 33.2601 18.9201 33.5383 18.8286C33.974 18.6858 34.1094 18.4185 34.1497 18.2135L36.5733 6.1066C36.6026 5.9565 36.5843 5.81006 36.5184 5.68925C36.4525 5.56112 36.3317 5.46593 36.1669 5.40003C36.0388 5.35244 35.8777 5.31583 35.6727 5.2902C35.4786 5.26457 35.248 5.25359 34.9624 5.25359C34.3767 5.25359 33.9557 5.29752 33.6774 5.38905C33.2418 5.53183 33.1063 5.80274 33.066 6.00043L32.9635 6.50199C32.5938 6.09562 32.1801 5.76613 31.7298 5.52451C31.1147 5.19135 30.4008 5.02295 29.6101 5.02295C28.7717 5.02295 28.0066 5.17305 27.3366 5.47325C26.674 5.76979 26.0772 6.1725 25.5647 6.6704C25.0558 7.16463 24.6128 7.73941 24.2504 8.37642C23.8916 9.00611 23.5914 9.67241 23.3608 10.3534C23.1301 11.0343 22.958 11.7226 22.8482 12.4108C22.7384 13.0954 22.6835 13.7361 22.6835 14.3145C22.6835 14.9369 22.7457 15.541 22.8738 16.1084C23.002 16.6905 23.2253 17.2177 23.5292 17.6717C23.8403 18.1366 24.2614 18.51 24.7812 18.7846C25.2974 19.0555 25.9454 19.1947 26.7106 19.1947C27.2634 19.1947 27.8052 19.1031 28.3251 18.9201C28.8339 18.7407 29.3099 18.5137 29.7309 18.2428C30.1336 17.9865 30.485 17.6973 30.7852 17.3861ZM31.5504 11.4553C31.4296 12.0521 31.2356 12.6195 30.972 13.1394C30.7084 13.6629 30.4008 14.1242 30.0567 14.5159C29.7199 14.9003 29.3501 15.2115 28.9621 15.4348C28.5923 15.6471 28.2262 15.757 27.8821 15.757C27.6551 15.757 27.4721 15.713 27.3366 15.6288C27.1938 15.541 27.084 15.4238 26.9961 15.2737C26.9046 15.1126 26.8387 14.9259 26.8058 14.7173C26.7691 14.4866 26.7472 14.245 26.7472 13.9887C26.7472 13.6299 26.7765 13.2346 26.8314 12.8135C26.8863 12.3925 26.9742 11.9679 27.095 11.5505C27.2121 11.1368 27.3622 10.7341 27.5416 10.3534C27.7173 9.97993 27.9224 9.64678 28.1493 9.36123C28.369 9.08665 28.6289 8.86699 28.9108 8.70225C29.1854 8.54482 29.4893 8.46794 29.8187 8.46794C30.269 8.46794 30.6681 8.57777 31.0049 8.79743C31.3307 9.00611 31.6346 9.32462 31.9128 9.73831L31.5504 11.4553Z" fill="#EE122C"/>
<path d="M52.9049 1.47904C52.9378 1.26305 52.8207 1.07267 52.5937 0.966505C52.4473 0.896946 52.2349 0.853014 51.9494 0.834709C51.6968 0.816404 51.3563 0.809082 50.9353 0.809082C50.5618 0.809082 50.258 0.816404 50.031 0.83837C49.7967 0.856675 49.61 0.885963 49.4562 0.926234C49.2768 0.973827 49.145 1.03606 49.0499 1.11661C48.9693 1.1825 48.8998 1.26305 48.8302 1.35457L43.0422 9.40509L41.8121 5.87956C41.7755 5.7624 41.7315 5.6599 41.673 5.57569C41.5924 5.4622 41.4606 5.38166 41.2812 5.33773C41.1494 5.30844 40.9774 5.28281 40.7467 5.27183C40.5307 5.25719 40.2342 5.24987 39.8534 5.24987C39.4214 5.24987 39.07 5.26085 38.8064 5.28648C38.5099 5.3121 38.2902 5.36336 38.1364 5.4439C37.8875 5.57569 37.8069 5.75874 37.7813 5.89054C37.7557 6.04064 37.7777 6.21637 37.8472 6.43237L39.8132 11.8726L29.7162 25.2755C29.5917 25.4659 29.5258 25.6196 29.5038 25.7587C29.4745 25.9711 29.577 26.1578 29.7857 26.2676C29.9285 26.3445 30.1299 26.3958 30.4044 26.4214C30.6497 26.4433 30.9755 26.458 31.3636 26.458C31.8029 26.458 32.1544 26.447 32.418 26.4287C32.6925 26.4104 32.9122 26.3811 33.0843 26.3408C33.2893 26.2932 33.4394 26.2274 33.5419 26.1395C33.6261 26.0663 33.7066 25.9747 33.7652 25.8832L42.0976 14.5305L43.3826 18.2684C43.4083 18.3818 43.4485 18.4844 43.5071 18.5759C43.584 18.6967 43.7121 18.7809 43.8915 18.8395C44.027 18.8834 44.21 18.9127 44.4517 18.931C44.6786 18.9493 44.9788 18.9603 45.3669 18.9603C45.7843 18.9603 46.132 18.9493 46.4066 18.9237C46.7032 18.898 46.9301 18.8468 47.0985 18.7736C47.3695 18.6528 47.4683 18.477 47.5013 18.3526C47.5415 18.2025 47.5342 18.0304 47.4683 17.8071L45.3523 11.9312L52.6596 1.98792C52.806 1.78291 52.8829 1.62182 52.9049 1.47904Z" fill="#EE122C"/>
<path d="M69.291 24.2978C69.2177 24.166 69.0823 24.0635 68.8846 23.9939C68.7308 23.9427 68.5405 23.9024 68.2952 23.8804C67.8375 23.8328 67.0102 23.8328 66.5342 23.8804C66.2853 23.906 66.0803 23.9427 65.9119 23.9939C65.7178 24.0525 65.5714 24.1294 65.4652 24.2319C65.3408 24.349 65.2675 24.4918 65.2565 24.6199L61.9433 41.1713C61.8957 41.3397 61.914 41.5008 62.0019 41.6362C62.0825 41.7644 62.2106 41.8596 62.401 41.9255C62.5511 41.9804 62.7414 42.017 62.9867 42.0426C63.221 42.0682 63.5176 42.0792 63.8727 42.0792C64.2205 42.0792 64.5207 42.0682 64.766 42.0426C65.0222 42.017 65.2273 41.9804 65.3957 41.9291C65.5897 41.8705 65.7361 41.79 65.8423 41.6838C65.9521 41.574 66.0217 41.4422 66.051 41.2994L69.3569 24.7224C69.3862 24.576 69.3642 24.4259 69.291 24.2978Z" fill="black"/>
<path d="M75.4524 23.0896C75.3865 22.9578 75.2621 22.8517 75.0827 22.7748C74.9436 22.7162 74.7568 22.6723 74.5152 22.6393C74.0649 22.5844 73.2668 22.5844 72.7945 22.6393C72.5493 22.6686 72.3516 22.7126 72.1905 22.7675C72.0001 22.8334 71.8573 22.9176 71.7621 23.0311C71.667 23.1409 71.6084 23.2654 71.5791 23.4008L68.0169 41.2079C67.9877 41.3653 68.0096 41.5117 68.0828 41.6399C68.1561 41.7644 68.2805 41.8559 68.4563 41.9254C68.599 41.9804 68.7821 42.017 69.0201 42.0426C69.2434 42.0646 69.5326 42.0792 69.8804 42.0792C70.2099 42.0792 70.4954 42.0682 70.7334 42.0426C70.9824 42.017 71.1764 41.9804 71.3338 41.9291C71.5132 41.8705 71.6486 41.7936 71.7475 41.6948C71.8537 41.5886 71.9232 41.4605 71.9525 41.3177L75.5 23.507C75.533 23.3569 75.5183 23.2178 75.4524 23.0896Z" fill="black"/>
<path d="M80.0031 28.8448C79.9372 28.7167 79.8127 28.6178 79.626 28.5446C79.4796 28.486 79.2928 28.4421 79.0585 28.4128C78.8352 28.3835 78.5533 28.3689 78.2055 28.3689C77.8541 28.3689 77.5722 28.3835 77.3379 28.4128C77.0999 28.4421 76.8985 28.486 76.7375 28.5409C76.5544 28.6068 76.419 28.6837 76.3238 28.7826C76.2176 28.8887 76.148 29.0169 76.1188 29.1596L73.7208 41.2116C73.6915 41.3654 73.7062 41.5082 73.7757 41.6327C73.8453 41.7644 73.9698 41.8633 74.1601 41.9329C74.3066 41.9878 74.4896 42.0244 74.7276 42.05C74.9509 42.0756 75.2365 42.0866 75.5769 42.0866C75.9064 42.0866 76.192 42.0756 76.4299 42.05C76.6789 42.0244 76.8766 41.9878 77.034 41.9365C77.217 41.8779 77.3562 41.8011 77.455 41.6985C77.5612 41.5924 77.6307 41.4642 77.66 41.3215L80.058 29.2695C80.0873 29.1121 80.069 28.9693 80.0031 28.8448Z" fill="black"/>
<path d="M77.5611 27.0874C77.8211 27.1533 78.1469 27.1826 78.5533 27.1826C78.967 27.1826 79.3074 27.1533 79.5893 27.0874C79.8895 27.0215 80.1495 26.9043 80.3618 26.7396C80.5778 26.5749 80.7499 26.3552 80.8743 26.0843C80.9915 25.8353 81.0867 25.5278 81.1526 25.1727C81.2221 24.8212 81.2478 24.5284 81.2331 24.2794C81.2148 23.9939 81.127 23.7522 80.9659 23.5619C80.8085 23.3751 80.5778 23.2397 80.2849 23.1628C80.0177 23.0933 79.6918 23.0603 79.2855 23.0603C78.8791 23.0603 78.5276 23.0933 78.2457 23.1628C77.9455 23.236 77.6893 23.3568 77.4769 23.5252C77.2646 23.6937 77.0925 23.9133 76.9681 24.1769C76.8509 24.4222 76.7557 24.7224 76.6898 25.0629C76.6129 25.4216 76.5837 25.7328 76.602 25.9891C76.6239 26.2783 76.7191 26.5199 76.8765 26.703C77.0376 26.886 77.2683 27.0142 77.5611 27.0874Z" fill="black"/>
<path d="M100.435 30.4301C100.307 29.9725 100.098 29.5697 99.8126 29.2293C99.5234 28.8851 99.139 28.6142 98.6704 28.4202C98.2091 28.2298 97.638 28.1346 96.9754 28.1346C96.4482 28.1346 95.9283 28.2225 95.4341 28.4019C94.9472 28.574 94.4859 28.8009 94.0685 29.0719C93.6512 29.3464 93.2704 29.654 92.9409 29.9908C92.7835 30.1518 92.6371 30.3093 92.5053 30.4704C92.4614 30.2983 92.4101 30.1335 92.3478 29.9725C92.2051 29.6064 91.9927 29.2805 91.7182 29.006C91.4436 28.7314 91.0885 28.5117 90.6711 28.358C89.862 28.0614 88.6722 28.0395 87.6545 28.3982C87.1639 28.5703 86.6989 28.7973 86.2816 29.0719C85.8642 29.3464 85.4835 29.6576 85.1577 29.9981C85.1357 30.02 85.1137 30.0457 85.0918 30.0676L85.2602 29.2183C85.2895 29.0682 85.2748 28.9327 85.2199 28.8119C85.1577 28.6801 85.0442 28.5776 84.8794 28.5117C84.755 28.4605 84.5975 28.4239 84.3962 28.3982C84.2058 28.3726 83.9715 28.3616 83.6786 28.3616C83.3967 28.3616 83.1514 28.3726 82.9501 28.3982C82.7341 28.4239 82.562 28.4568 82.4229 28.5044C82.2545 28.5593 82.1227 28.6435 82.0312 28.7497C81.9396 28.8522 81.8811 28.9767 81.8554 29.1121L79.4319 41.2044C79.4026 41.3581 79.4172 41.5009 79.4868 41.6254C79.5563 41.7572 79.6808 41.856 79.8712 41.9256C80.0176 41.9805 80.2007 42.0171 80.4386 42.0428C80.878 42.0903 81.6577 42.0903 82.141 42.0428C82.3899 42.0171 82.5876 41.9805 82.7451 41.9293C82.9281 41.8707 83.0672 41.7938 83.1661 41.6913C83.2722 41.5851 83.3418 41.457 83.3711 41.3142L84.4694 35.841C84.5792 35.2663 84.7696 34.7134 85.0332 34.2009C85.2968 33.6884 85.6043 33.2307 85.9411 32.85C86.2779 32.4729 86.633 32.1691 86.9955 31.9494C87.3396 31.7407 87.6691 31.6382 87.9766 31.6382C88.4196 31.6382 88.5441 31.8322 88.5844 31.8945C88.7162 32.1068 88.7857 32.3887 88.7857 32.7292C88.7857 32.9269 88.7747 33.1319 88.7528 33.3442C88.7308 33.5492 88.6942 33.7506 88.6429 33.9629L87.2078 41.208C87.1785 41.3655 87.2005 41.5156 87.2737 41.6364C87.3469 41.7609 87.4678 41.8524 87.6471 41.9219C87.7863 41.9769 87.973 42.0135 88.2109 42.0391C88.6649 42.0867 89.4447 42.0867 89.906 42.0391C90.1476 42.0135 90.3453 41.9769 90.51 41.9256C90.7004 41.867 90.8395 41.7901 90.9384 41.6876C91.0445 41.5815 91.1141 41.4533 91.1434 41.3106L92.2417 35.8374C92.3552 35.2589 92.5419 34.7098 92.8055 34.1972C93.0691 33.6847 93.3729 33.2307 93.7134 32.8463C94.0502 32.4693 94.4053 32.1654 94.7678 31.9457C95.1119 31.7371 95.4414 31.6345 95.7489 31.6345C96.2029 31.6345 96.32 31.8286 96.3603 31.8945C96.4921 32.1141 96.558 32.4107 96.558 32.7841C96.558 32.9745 96.5434 33.1722 96.5214 33.3625C96.4958 33.5602 96.4628 33.7652 96.4299 33.9629L94.9874 41.1824C94.9252 41.3911 94.9801 41.5449 95.035 41.64C95.1083 41.7645 95.2291 41.856 95.4085 41.9256C95.5476 41.9805 95.7343 42.0171 95.9796 42.0428C96.2066 42.0684 96.4921 42.0794 96.8216 42.0794C97.1584 42.0794 97.4513 42.0684 97.6819 42.0428C97.9236 42.0171 98.1213 41.9805 98.286 41.9293C98.4764 41.8707 98.6155 41.7938 98.718 41.6913C98.8242 41.5851 98.8937 41.457 98.923 41.3142L100.413 33.8568C100.486 33.5163 100.541 33.1758 100.581 32.8463C100.618 32.5168 100.636 32.1837 100.636 31.8615C100.622 31.3563 100.559 30.8731 100.435 30.4301Z" fill="black"/>
<path d="M104.444 27.0874C104.704 27.1533 105.03 27.1826 105.436 27.1826C105.85 27.1826 106.19 27.1533 106.472 27.0874C106.772 27.0215 107.032 26.9043 107.244 26.7396C107.46 26.5749 107.633 26.3552 107.757 26.0843C107.874 25.8353 107.969 25.5278 108.035 25.1727C108.105 24.8212 108.13 24.5284 108.116 24.2794C108.098 23.9939 108.01 23.7522 107.849 23.5619C107.691 23.3751 107.461 23.2397 107.168 23.1628C106.9 23.0933 106.575 23.0603 106.168 23.0603C105.762 23.0603 105.41 23.0933 105.128 23.1628C104.828 23.236 104.572 23.3568 104.36 23.5252C104.147 23.6937 103.975 23.9133 103.851 24.1769C103.734 24.4222 103.638 24.7224 103.573 25.0629C103.496 25.4216 103.466 25.7328 103.485 25.9891C103.507 26.2783 103.602 26.5199 103.759 26.703C103.92 26.886 104.151 27.0142 104.444 27.0874Z" fill="black"/>
<path d="M106.512 28.5446C106.366 28.486 106.179 28.4421 105.945 28.4128C105.721 28.3835 105.44 28.3689 105.092 28.3689C104.74 28.3689 104.458 28.3835 104.224 28.4128C103.986 28.4421 103.785 28.486 103.624 28.5409C103.441 28.6068 103.305 28.6837 103.21 28.7826C103.104 28.8887 103.034 29.0169 103.005 29.1596L100.607 41.2116C100.578 41.3654 100.592 41.5082 100.662 41.6327C100.732 41.7644 100.856 41.8633 101.046 41.9329C101.193 41.9878 101.376 42.0244 101.614 42.05C101.837 42.0756 102.123 42.0866 102.463 42.0866C102.793 42.0866 103.078 42.0756 103.316 42.05C103.565 42.0244 103.763 41.9878 103.92 41.9365C104.103 41.8779 104.242 41.8011 104.341 41.6985C104.447 41.5924 104.517 41.4642 104.546 41.3215L106.944 29.2695C106.973 29.1157 106.959 28.9729 106.889 28.8485C106.82 28.7167 106.695 28.6178 106.512 28.5446Z" fill="black"/>
<path d="M113.483 38.6195C113.402 38.6488 113.307 38.6854 113.197 38.7257C113.095 38.7623 112.974 38.7952 112.835 38.8245C112.699 38.8538 112.531 38.8648 112.333 38.8648C112.04 38.8648 111.828 38.8062 111.711 38.6927C111.594 38.5792 111.535 38.3815 111.535 38.096C111.535 37.9861 111.546 37.847 111.568 37.675C111.59 37.4992 111.612 37.3455 111.638 37.2137L112.732 31.7588H115.149C115.269 31.7588 115.449 31.7222 115.621 31.5501C115.727 31.444 115.818 31.3122 115.903 31.1547C115.976 31.012 116.042 30.8509 116.1 30.6751C116.159 30.5031 116.203 30.3273 116.24 30.1516C116.272 29.9832 116.298 29.8258 116.316 29.6794C116.335 29.5256 116.346 29.3975 116.346 29.2986C116.346 29.0606 116.309 28.8776 116.232 28.7348C116.174 28.625 116.024 28.4419 115.679 28.4419H113.402L113.878 26.0769C113.907 25.9232 113.885 25.7731 113.816 25.6449C113.746 25.5205 113.622 25.418 113.446 25.3447C113.3 25.2825 113.113 25.2422 112.868 25.2166C112.41 25.169 111.619 25.169 111.165 25.2166C110.924 25.2422 110.722 25.2825 110.558 25.3411C110.375 25.407 110.239 25.4875 110.137 25.5937C110.034 25.7035 109.968 25.8316 109.939 25.9708L109.441 28.4456H108.218C108.043 28.4456 107.786 28.5115 107.57 28.8227C107.438 29.0167 107.329 29.251 107.252 29.5146C107.175 29.7672 107.12 30.0271 107.087 30.2907C107.054 30.547 107.039 30.763 107.039 30.9278C107.039 31.2096 107.08 31.4 107.171 31.5245C107.244 31.6307 107.391 31.7551 107.654 31.7551H108.782L107.673 37.3089C107.644 37.4333 107.618 37.5725 107.596 37.7299L107.526 38.1692C107.504 38.323 107.486 38.4657 107.475 38.6048C107.464 38.744 107.46 38.8648 107.46 38.9673C107.46 39.5384 107.537 40.0363 107.687 40.4427C107.841 40.8637 108.079 41.2151 108.394 41.4897C108.705 41.7606 109.09 41.9583 109.536 42.0828C109.968 42.1999 110.473 42.2622 111.037 42.2622C111.301 42.2622 111.568 42.2439 111.828 42.2146C112.088 42.1816 112.341 42.1377 112.571 42.0791C112.806 42.0206 113.014 41.951 113.194 41.8741C113.388 41.7863 113.534 41.6947 113.644 41.5849C113.754 41.4751 113.845 41.3286 113.933 41.1273C114.01 40.9515 114.08 40.7539 114.142 40.5379C114.204 40.3219 114.255 40.0985 114.292 39.8789C114.332 39.6482 114.35 39.4359 114.35 39.2528C114.35 39.0368 114.31 38.8758 114.222 38.7586C114.043 38.5353 113.761 38.5097 113.483 38.6195Z" fill="black"/>
<path d="M128.614 28.8045C128.548 28.6763 128.427 28.5812 128.262 28.5153C128.134 28.4677 127.973 28.4311 127.768 28.4054C127.574 28.3798 127.343 28.3688 127.058 28.3688C126.472 28.3688 126.055 28.4128 125.773 28.5043C125.337 28.6471 125.202 28.918 125.161 29.1157L125.059 29.6172C124.689 29.2109 124.275 28.8814 123.825 28.6397C123.21 28.3066 122.496 28.1382 121.705 28.1382C120.867 28.1382 120.102 28.2883 119.432 28.5885C118.769 28.885 118.173 29.2877 117.66 29.7856C117.151 30.2799 116.708 30.8546 116.346 31.4917C115.987 32.1213 115.687 32.7876 115.456 33.4686C115.225 34.1495 115.053 34.8378 114.944 35.5261C114.834 36.2107 114.779 36.8513 114.779 37.4298C114.779 38.0521 114.841 38.6562 114.969 39.2237C115.097 39.8058 115.321 40.3329 115.624 40.7869C115.936 41.2519 116.357 41.6253 116.877 41.8999C117.393 42.1708 118.041 42.3099 118.806 42.3099C119.359 42.3099 119.901 42.2184 120.42 42.0353C120.929 41.8559 121.405 41.6289 121.826 41.358C122.225 41.1018 122.577 40.8125 122.877 40.5014L122.734 41.2262C122.705 41.3837 122.719 41.5228 122.774 41.6436C122.837 41.779 122.961 41.8815 123.137 41.9474C123.269 41.995 123.43 42.0316 123.631 42.05C123.818 42.0683 124.056 42.0792 124.345 42.0792C124.931 42.0792 125.348 42.0353 125.63 41.9438C126.062 41.801 126.201 41.5338 126.241 41.3287L128.665 29.2218C128.698 29.0717 128.68 28.929 128.614 28.8045ZM119.088 38.3926C118.996 38.2315 118.93 38.0448 118.897 37.8362C118.861 37.6055 118.839 37.3639 118.839 37.1076C118.839 36.7488 118.868 36.3534 118.923 35.9324C118.978 35.5114 119.066 35.0867 119.187 34.6694C119.304 34.2557 119.454 33.853 119.633 33.4722C119.809 33.0988 120.014 32.7657 120.241 32.4801C120.461 32.2055 120.721 31.9859 121.002 31.8211C121.277 31.6637 121.581 31.5868 121.91 31.5868C122.361 31.5868 122.76 31.6967 123.097 31.9163C123.422 32.125 123.726 32.4435 124.005 32.8572L123.646 34.5742C123.525 35.1709 123.331 35.7384 123.067 36.2583C122.804 36.7818 122.496 37.2431 122.152 37.6348C121.815 38.0192 121.445 38.3304 121.057 38.5537C120.688 38.766 120.322 38.8759 119.977 38.8759C119.75 38.8759 119.567 38.8319 119.432 38.7477C119.285 38.6599 119.176 38.5464 119.088 38.3926Z" fill="black"/>
<path d="M143.283 23.1261C143.217 22.9943 143.093 22.8881 142.914 22.8149C142.771 22.7527 142.584 22.7087 142.346 22.6795C142.123 22.6502 141.841 22.6355 141.493 22.6355C141.145 22.6355 140.86 22.6502 140.625 22.6795C140.387 22.7087 140.182 22.7527 140.025 22.8076C139.838 22.8735 139.703 22.9577 139.604 23.0675C139.509 23.1773 139.447 23.3018 139.421 23.4373L138.242 29.2839C138.173 29.218 138.099 29.1521 138.022 29.0898C137.788 28.8958 137.528 28.7274 137.243 28.5883C136.957 28.4492 136.642 28.3357 136.305 28.2551C135.965 28.1746 135.606 28.1343 135.233 28.1343C134.405 28.1343 133.644 28.2844 132.974 28.5773C132.311 28.8702 131.715 29.2656 131.202 29.7562C130.693 30.2431 130.25 30.8105 129.888 31.4439C129.529 32.0699 129.229 32.7325 128.994 33.4062C128.76 34.0834 128.584 34.7717 128.475 35.4563C128.365 36.1409 128.31 36.7889 128.31 37.3893C128.31 37.7518 128.332 38.1252 128.379 38.4986C128.427 38.8793 128.507 39.2528 128.621 39.6115C128.734 39.974 128.888 40.3181 129.079 40.6439C129.273 40.9771 129.525 41.27 129.825 41.5153C130.126 41.7605 130.488 41.9582 130.902 42.0974C131.312 42.2365 131.795 42.3097 132.337 42.3097C132.886 42.3097 133.432 42.2218 133.948 42.0461C134.46 41.8704 134.936 41.6434 135.357 41.3652C135.76 41.1016 136.115 40.8087 136.415 40.4938L136.276 41.2297C136.247 41.3871 136.261 41.5262 136.316 41.6471C136.379 41.7825 136.503 41.885 136.679 41.9509C136.811 41.9985 136.972 42.0351 137.173 42.0534C137.36 42.0717 137.598 42.0827 137.887 42.0827C138.473 42.0827 138.894 42.0388 139.172 41.9473C139.608 41.8045 139.743 41.5336 139.783 41.3322L143.331 23.5508C143.364 23.4007 143.349 23.2579 143.283 23.1261ZM137.532 32.868L137.173 34.5996C137.052 35.1964 136.858 35.7638 136.595 36.2837C136.331 36.8072 136.024 37.2648 135.679 37.6456C135.343 38.0227 134.973 38.3265 134.581 38.5535C134.211 38.7659 133.845 38.8757 133.501 38.8757C133.109 38.8757 132.835 38.7475 132.663 38.4803C132.469 38.1801 132.37 37.7078 132.37 37.0781C132.37 36.7047 132.399 36.302 132.461 35.8847C132.52 35.4673 132.611 35.0426 132.732 34.6216C132.849 34.2043 133 33.8015 133.175 33.4245C133.351 33.0547 133.556 32.7289 133.787 32.4543C134.014 32.187 134.27 31.9711 134.552 31.8136C134.823 31.6599 135.116 31.583 135.438 31.583C135.884 31.583 136.283 31.6965 136.62 31.9161C136.95 32.1321 137.254 32.4543 137.532 32.868Z" fill="black"/>
<path d="M155.079 31.0889C154.848 30.4519 154.49 29.9028 154.017 29.4635C153.549 29.0278 152.956 28.691 152.256 28.4677C151.568 28.248 150.744 28.1382 149.811 28.1382C148.855 28.1382 147.984 28.27 147.215 28.5336C146.45 28.7935 145.762 29.1559 145.169 29.6026C144.576 30.0492 144.059 30.5837 143.635 31.1878C143.214 31.7845 142.866 32.4252 142.595 33.0915C142.328 33.7541 142.13 34.4461 142.002 35.149C141.877 35.8482 141.815 36.5402 141.815 37.2028C141.815 38.0082 141.929 38.7331 142.156 39.3628C142.386 40.0035 142.745 40.5489 143.217 40.9883C143.686 41.4239 144.279 41.7607 144.978 41.9841C145.667 42.2037 146.49 42.3172 147.424 42.3172C148.379 42.3172 149.251 42.1854 150.019 41.9218C150.785 41.6619 151.473 41.2958 152.07 40.8455C152.663 40.3915 153.179 39.8607 153.604 39.2713C154.025 38.6818 154.376 38.0448 154.643 37.3712C154.911 36.7012 155.108 36.0057 155.233 35.3064C155.357 34.6072 155.419 33.9152 155.419 33.2563C155.423 32.4435 155.306 31.715 155.079 31.0889ZM147.794 39.0662C147.431 39.0662 147.127 39.0187 146.886 38.9235C146.651 38.8319 146.465 38.7038 146.315 38.5317C146.168 38.3597 146.058 38.1473 145.992 37.8911C145.923 37.6165 145.886 37.298 145.886 36.9429C145.886 36.5475 145.916 36.1301 145.978 35.7018C146.04 35.2698 146.135 34.8415 146.267 34.4241C146.395 34.0104 146.564 33.6077 146.761 33.2306C146.955 32.8645 147.19 32.535 147.453 32.2568C147.713 31.9822 148.013 31.7626 148.343 31.6015C148.665 31.4441 149.035 31.3672 149.441 31.3672C149.8 31.3672 150.107 31.4148 150.349 31.51C150.58 31.6015 150.774 31.7333 150.92 31.9017C151.067 32.0738 151.176 32.2861 151.242 32.535C151.312 32.8059 151.348 33.1208 151.348 33.4759C151.348 33.864 151.319 34.2777 151.257 34.7097C151.195 35.138 151.099 35.5663 150.968 35.9874C150.84 36.4047 150.671 36.8074 150.473 37.1845C150.276 37.5543 150.041 37.8837 149.778 38.1656C149.518 38.4439 149.218 38.6635 148.888 38.8246C148.57 38.9857 148.2 39.0662 147.794 39.0662Z" fill="black"/>
<path d="M70.6272 0.457624C70.3819 0.168406 70.0268 0 69.646 0H68.1157C67.4897 0 66.9589 0.446641 66.8527 1.06169L64.9417 12.0556L60.2446 0.787113C60.0432 0.307523 59.582 0 59.0621 0H57.0742C56.4481 0 55.9173 0.446641 55.8111 1.06169L52.9373 17.6057C52.8714 17.9791 52.9739 18.3599 53.2192 18.6491C53.4644 18.9383 53.8196 19.1067 54.2003 19.1067H55.7416C56.3676 19.1067 56.8984 18.6601 57.0046 18.045L58.912 7.0767L63.6017 18.3196C63.8031 18.7992 64.2644 19.1067 64.7842 19.1067H66.7831C67.4092 19.1067 67.94 18.6601 68.0462 18.045L70.9091 1.50101C70.975 1.12759 70.8725 0.746842 70.6272 0.457624Z" fill="black"/>
<path d="M82.8512 12.2496L82.9317 11.6163C83.1587 9.61003 82.7963 7.92598 81.8481 6.60802C80.8926 5.27908 79.4758 4.58715 77.6306 4.5542C76.3346 4.52125 75.1448 4.82146 74.0831 5.44748C73.0214 6.07351 72.1428 6.97778 71.4692 8.13099C70.7992 9.28054 70.3929 10.5619 70.2611 11.9421L70.2244 12.4546C70.1183 13.7177 70.305 14.8892 70.7809 15.9362C71.2568 16.9906 71.989 17.8326 72.9555 18.4367C73.9184 19.0408 75.0423 19.3519 76.287 19.3593C76.331 19.3593 76.3712 19.3593 76.4152 19.3593C77.5208 19.3593 78.5752 19.1396 79.5453 18.7039C80.2043 18.4074 80.7718 18.0303 81.233 17.5837C81.6907 17.137 81.7273 16.3865 81.3172 15.8777L80.9621 15.4347C80.5192 14.8855 79.743 14.7757 79.1939 15.1784C78.4251 15.7422 77.5574 16.0204 76.6092 15.9911C75.8404 15.9765 75.2547 15.7202 74.8117 15.2187C74.4053 14.7537 74.1966 14.1277 74.1966 13.3589H81.5845C82.2215 13.3662 82.767 12.8866 82.8512 12.2496ZM75.7818 8.50807C76.2687 8.09804 76.8106 7.90401 77.4403 7.92232C77.9089 7.92964 78.3006 8.06143 78.6008 8.31038C78.9047 8.56299 79.0877 8.90712 79.1682 9.36109C79.2085 9.6503 79.2049 9.96149 79.1573 10.2727L79.1133 10.4667H74.5334C74.9142 9.5478 75.3315 8.88882 75.7818 8.50807Z" fill="black"/>
<path d="M97.1804 5.26443C96.9387 4.97521 96.5836 4.81047 96.2065 4.80681L94.9471 4.80315C94.3907 4.79216 93.9147 5.14362 93.7317 5.65982L93.6255 5.95636C92.8677 5.05209 91.7731 4.57616 90.3672 4.54321C90.3343 4.54321 90.3013 4.54321 90.2684 4.54321C88.5221 4.54321 87.0504 5.23148 85.8935 6.58239C84.7293 7.94794 84.0081 9.74548 83.7482 11.9238V11.9275C83.6786 12.6413 83.6567 13.2747 83.6823 13.8055C83.7592 15.4237 84.2168 16.7636 85.0368 17.7777C85.8679 18.8101 87.0028 19.341 88.405 19.3593C89.5252 19.3812 90.5649 19.0151 91.4985 18.25L91.4363 18.5026C91.2093 19.4178 90.77 20.1354 90.1366 20.637C89.5069 21.1348 88.7344 21.3728 87.8338 21.3362C87.0174 21.3142 86.2926 21.0543 85.6702 20.5674C85.121 20.1354 84.3193 20.2233 83.8836 20.7614L83.4663 21.274C83.027 21.8121 83.0929 22.6066 83.6127 23.0422C84.2534 23.5804 85.0332 23.9977 85.9301 24.287C86.5415 24.481 87.2078 24.5872 87.9144 24.5981C87.9693 24.5981 88.0279 24.5981 88.0828 24.5981C90.0048 24.5981 91.6449 24.0563 92.9629 22.9836C94.3248 21.878 95.1448 20.3551 95.3974 18.4696L97.4586 6.29683C97.5281 5.93073 97.422 5.55365 97.1804 5.26443ZM89.4886 15.9985C88.8992 15.9765 88.4672 15.7495 88.1597 15.3102C87.8448 14.8599 87.6837 14.2412 87.6837 13.4761V13.4724C87.6764 13.0953 87.702 12.5901 87.7606 11.9787C87.918 10.7413 88.3098 9.7345 88.9285 8.99132C89.5216 8.28109 90.2135 7.93329 91.0518 7.93329C91.0811 7.93329 91.1104 7.93329 91.1361 7.93329C92.044 7.96258 92.6517 8.32502 92.9995 9.03891L91.9378 14.8343C91.2129 15.6507 90.4258 16.0351 89.4886 15.9985Z" fill="black"/>
<path d="M108.24 5.5355C107.325 4.90581 106.227 4.57632 104.967 4.55802C102.983 4.51042 101.284 5.18405 99.9188 6.5679C98.5569 7.9481 97.7515 9.82985 97.5245 12.1619C97.4037 13.4798 97.5574 14.7026 97.9858 15.7972C98.4178 16.8992 99.0987 17.7742 100.01 18.3965C100.922 19.0189 102.009 19.3447 103.25 19.3631C103.298 19.3631 103.349 19.3631 103.397 19.3631C105.352 19.3631 107.021 18.6711 108.361 17.3056C109.727 15.9107 110.525 14.0656 110.722 11.8214C110.843 10.4851 110.693 9.25141 110.268 8.15311C109.836 7.04749 109.155 6.16519 108.24 5.5355ZM102.346 9.35758C102.943 8.39108 103.708 7.91881 104.682 7.91881C104.715 7.91881 104.748 7.91881 104.781 7.91881C105.407 7.93345 105.868 8.16043 106.201 8.61074C106.542 9.07202 106.732 9.70171 106.765 10.4778C106.805 12.1546 106.516 13.5274 105.905 14.5488C105.3 15.5556 104.506 16.0279 103.441 15.9949C102.822 15.9803 102.361 15.7606 102.024 15.325C101.68 14.882 101.5 14.2669 101.482 13.4872C101.427 11.7628 101.72 10.3717 102.346 9.35758Z" fill="black"/>
<path d="M121.881 13.9302H121.877L120.523 13.9339C120.036 13.9339 119.593 14.2231 119.395 14.6661C119.249 14.9919 119.036 15.2774 118.769 15.5044C118.356 15.8595 117.847 16.0206 117.221 16.006C116.122 15.984 115.548 15.2884 115.467 13.8899C115.434 13.2602 115.482 12.4768 115.606 11.5579C115.961 9.0611 116.939 7.88226 118.568 7.91887C119.168 7.95182 119.604 8.15317 119.9 8.54124C120.069 8.76456 120.193 9.03913 120.267 9.3613C120.402 9.95804 120.907 10.3754 121.493 10.3754H122.741C123.118 10.3754 123.477 10.2106 123.719 9.92143C123.964 9.62855 124.07 9.24781 124.004 8.87073C123.821 7.80172 123.382 6.88647 122.697 6.15061C121.746 5.12553 120.442 4.59103 118.828 4.55442C116.88 4.50682 115.218 5.16214 113.893 6.52037C112.575 7.87128 111.784 9.72008 111.55 12.0192L111.498 12.8832C111.462 14.8162 111.96 16.3904 112.97 17.5619C113.988 18.7371 115.383 19.3485 117.118 19.3741C117.177 19.3741 117.232 19.3778 117.29 19.3778C118.275 19.3778 119.223 19.1654 120.116 18.7407C121.065 18.2904 121.833 17.6571 122.401 16.8517C122.686 16.4453 122.913 16.0096 123.071 15.552C123.199 15.1823 123.14 14.7832 122.906 14.4574C122.672 14.1279 122.287 13.9302 121.881 13.9302Z" fill="black"/>
<path d="M142.5 8.15311C142.072 7.04749 141.391 6.16519 140.475 5.53184C139.56 4.90215 138.462 4.57266 137.202 4.55436C135.222 4.50676 133.519 5.18039 132.154 6.56424C130.792 7.94444 129.987 9.82619 129.76 12.1582C129.639 13.4762 129.793 14.6989 130.221 15.7936C130.653 16.8955 131.334 17.7705 132.245 18.3929C133.157 19.0153 134.244 19.3411 135.485 19.3594C135.533 19.3594 135.584 19.3594 135.632 19.3594C137.587 19.3594 139.256 18.6675 140.596 17.3019C141.962 15.9071 142.76 14.0619 142.957 11.8177C143.078 10.4888 142.925 9.25507 142.5 8.15311ZM134.581 9.35758C135.178 8.39108 135.943 7.91881 136.917 7.91881C136.95 7.91881 136.983 7.91881 137.016 7.91881C137.642 7.93345 138.103 8.16043 138.436 8.61074C138.777 9.07202 138.967 9.70171 139 10.4778C139.04 12.1546 138.751 13.5274 138.14 14.5488C137.536 15.5556 136.741 16.0279 135.676 15.9949C135.057 15.9803 134.596 15.7606 134.259 15.325C133.915 14.882 133.735 14.267 133.717 13.4872C133.666 11.7628 133.959 10.3717 134.581 9.35758Z" fill="black"/>
<path d="M129.584 5.86851C129.518 5.74037 129.393 5.64153 129.207 5.56831C129.06 5.50973 128.874 5.4658 128.639 5.43651C128.416 5.40722 128.134 5.39258 127.786 5.39258C127.435 5.39258 127.153 5.40722 126.919 5.43651C126.681 5.4658 126.479 5.50973 126.318 5.56465C126.135 5.63054 126 5.70743 125.905 5.80627C125.798 5.91244 125.729 6.04058 125.7 6.18335L123.668 18.2354C123.638 18.3891 123.653 18.5319 123.723 18.6564C123.792 18.7882 123.917 18.887 124.107 18.9566C124.253 19.0115 124.437 19.0481 124.674 19.0737C124.898 19.0994 125.183 19.1103 125.524 19.1103C125.853 19.1103 126.139 19.0994 126.377 19.0737C126.626 19.0481 126.823 19.0115 126.981 18.9602C127.164 18.9017 127.303 18.8248 127.402 18.7223C127.508 18.6161 127.578 18.488 127.607 18.3452L129.639 6.29318C129.668 6.13576 129.65 5.99664 129.584 5.86851Z" fill="black"/>
<path d="M127.142 4.11132C127.402 4.17722 127.728 4.20651 128.134 4.20651C128.548 4.20651 128.888 4.17722 129.17 4.11132C129.47 4.04542 129.73 3.92827 129.943 3.76353C130.159 3.59878 130.331 3.37912 130.455 3.10821C130.572 2.85926 130.667 2.55174 130.733 2.19662C130.803 1.84517 130.829 1.55229 130.814 1.30334C130.796 1.01778 130.708 0.776156 130.547 0.585785C130.389 0.399074 130.159 0.263617 129.866 0.186736C129.598 0.117177 129.273 0.0842285 128.866 0.0842285C128.46 0.0842285 128.108 0.117177 127.827 0.186736C127.526 0.259956 127.27 0.380769 127.058 0.549175C126.845 0.71758 126.673 0.93724 126.549 1.20083C126.432 1.44612 126.337 1.74632 126.271 2.08679C126.194 2.44557 126.164 2.75675 126.183 3.01302C126.205 3.30224 126.3 3.54387 126.457 3.72692C126.618 3.90997 126.849 4.04176 127.142 4.11132Z" fill="black"/>
<path d="M155.449 7.84918C155.211 7.06939 154.76 6.39576 154.109 5.84661C153.109 5.00825 151.791 4.57259 150.184 4.55428C148.566 4.53598 147.171 4.95699 146.025 5.80634C144.865 6.66668 144.253 7.79426 144.206 9.15615C144.125 11.1734 145.531 12.5938 148.387 13.3809L149.551 13.6775C151.023 14.0948 150.894 14.7465 150.85 14.9588V14.9625C150.774 15.3762 150.547 15.6983 150.155 15.9473C149.752 16.1999 149.229 16.3317 148.603 16.3317C147.589 16.3207 146.984 15.951 146.754 15.2041C146.589 14.6696 146.124 14.3072 145.597 14.3035L144.22 14.2925C144.217 14.2925 144.213 14.2925 144.213 14.2925C143.832 14.2925 143.47 14.4719 143.243 14.7758C143.016 15.0723 142.946 15.4457 143.049 15.7972C143.294 16.6429 143.781 17.3787 144.495 17.9828C145.553 18.8761 146.893 19.341 148.471 19.3593C148.54 19.3593 148.61 19.363 148.68 19.363C149.672 19.363 150.631 19.1909 151.531 18.8468C152.505 18.477 153.285 17.9425 153.849 17.2616C154.416 16.5733 154.72 15.7533 154.746 14.8344C154.771 14.0472 154.607 13.3553 154.248 12.7879C153.896 12.2241 153.388 11.7481 152.736 11.3674C152.095 10.994 151.165 10.6608 149.968 10.3753L149.456 10.2618C147.874 9.87737 147.995 9.23303 148.035 9.02069C148.119 8.58504 148.346 8.24822 148.723 7.99196C149.108 7.73202 149.569 7.60023 150.093 7.60023C150.942 7.61121 151.44 7.92972 151.616 8.57405C151.751 9.06829 152.22 9.41608 152.758 9.41974L154.299 9.4234H154.303C154.687 9.4234 155.035 9.24768 155.266 8.94015C155.493 8.62531 155.562 8.22626 155.449 7.84918Z" fill="black"/>
</svg>
