<svg width="177" height="27" viewBox="0 0 177 27" fill="none" xmlns="http://www.w3.org/2000/svg">
<circle cx="168" cy="12" r="8" fill="#EE122C" stroke="#EE122C" stroke-linecap="round"/>
<path d="M169.106 10.9509H172V12.9208H169.106V16H166.902V12.9208H164V10.9509H166.902V8H169.106V10.9509Z" fill="white"/>
<path d="M24.1222 2.07561C24.093 1.85229 24.0161 1.65459 23.8916 1.49717C23.7671 1.33609 23.5987 1.21527 23.39 1.13107C23.196 1.05419 22.9654 1.01758 22.7091 1.01758H20.1903C19.7986 1.01758 19.4472 1.06151 19.1543 1.14205C18.8504 1.22626 18.5722 1.36537 18.3269 1.55209C18.0853 1.73513 17.8619 1.96944 17.6643 2.25133C17.4775 2.51859 17.2872 2.83709 17.1078 3.18489L11.4223 13.0366L9.84071 3.29472C9.80044 2.90299 9.73088 2.56252 9.62837 2.28062C9.51854 1.97676 9.3538 1.72415 9.14146 1.53378C8.92912 1.34341 8.65455 1.20429 8.33238 1.12741C8.03218 1.05419 7.66974 1.01758 7.25239 1.01758H5.03017C4.7922 1.01758 4.56522 1.05419 4.35654 1.12741C4.14421 1.20063 3.95384 1.31412 3.78543 1.4569C3.62435 1.59602 3.48523 1.77541 3.37174 1.98774C3.26557 2.1891 3.18869 2.41974 3.13743 2.67235L0.0292522 18.2609C-0.0183407 18.4183 -0.00735776 18.5721 0.0585401 18.7039C0.124438 18.8393 0.252573 18.9418 0.435622 19.015C0.57474 19.07 0.761451 19.1066 1.00674 19.1322C1.46436 19.1798 2.28076 19.1798 2.74937 19.1322C2.99466 19.1066 3.18869 19.07 3.33879 19.0187C3.52184 18.9565 3.65363 18.8686 3.74882 18.7551C3.83668 18.6489 3.8916 18.5245 3.92089 18.3927L6.47992 5.6048L8.3214 18.367C8.33604 18.6343 8.53008 18.8466 8.89251 18.9931C9.18539 19.1102 9.6357 19.1688 10.2617 19.1688C10.8585 19.1688 11.3124 19.1285 11.6492 19.0443C12.0446 18.9491 12.3155 18.7441 12.4547 18.4586L19.5973 5.65972L17.0785 18.2828C17.0492 18.4293 17.0602 18.5684 17.1151 18.6892C17.1773 18.832 17.3018 18.9418 17.4922 19.0114C17.635 19.0663 17.8217 19.1029 18.0633 19.1285C18.2903 19.1542 18.5868 19.1651 18.9456 19.1651C19.2824 19.1651 19.5753 19.1542 19.8133 19.1285C20.0622 19.1029 20.2562 19.0663 20.41 19.015C20.5967 18.9528 20.7285 18.8613 20.8164 18.7441C20.8896 18.6453 20.9445 18.5354 20.9811 18.4146C20.9848 18.4073 20.9848 18.4 20.9884 18.389L24.1039 2.74923C24.1405 2.50394 24.1479 2.2733 24.1222 2.07561Z" fill="#EE122C"/>
<path d="M30.7852 17.5946L30.6425 18.3195C30.6132 18.4769 30.6278 18.616 30.6827 18.7368C30.745 18.8723 30.8695 18.9748 31.0452 19.0407C31.177 19.0883 31.3381 19.1249 31.5394 19.1432C31.7261 19.1615 31.9641 19.1725 32.2533 19.1725C32.8391 19.1725 33.2601 19.1286 33.5383 19.037C33.974 18.8943 34.1094 18.627 34.1497 18.422L36.5733 6.3151C36.6026 6.165 36.5843 6.01856 36.5184 5.89775C36.4525 5.76961 36.3317 5.67443 36.1669 5.60853C36.0388 5.56093 35.8777 5.52432 35.6727 5.4987C35.4786 5.47307 35.248 5.46209 34.9624 5.46209C34.3767 5.46209 33.9557 5.50602 33.6774 5.59754C33.2418 5.74032 33.1063 6.01124 33.066 6.20893L32.9635 6.71049C32.5938 6.30412 32.1801 5.97463 31.7298 5.733C31.1147 5.39985 30.4008 5.23145 29.6101 5.23145C28.7717 5.23145 28.0066 5.38155 27.3366 5.68175C26.674 5.97829 26.0772 6.381 25.5647 6.87889C25.0558 7.37313 24.6128 7.9479 24.2504 8.58491C23.8916 9.21461 23.5914 9.88091 23.3608 10.5619C23.1301 11.2428 22.958 11.9311 22.8482 12.6193C22.7384 13.3039 22.6835 13.9446 22.6835 14.523C22.6835 15.1454 22.7457 15.7495 22.8738 16.3169C23.002 16.899 23.2253 17.4262 23.5292 17.8802C23.8403 18.3451 24.2614 18.7185 24.7812 18.9931C25.2974 19.264 25.9454 19.4031 26.7106 19.4031C27.2634 19.4031 27.8052 19.3116 28.3251 19.1286C28.8339 18.9492 29.3099 18.7222 29.7309 18.4513C30.1336 18.195 30.485 17.9058 30.7852 17.5946ZM31.5504 11.6638C31.4296 12.2606 31.2356 12.828 30.972 13.3479C30.7084 13.8714 30.4008 14.3327 30.0567 14.7244C29.7199 15.1088 29.3501 15.42 28.9621 15.6433C28.5923 15.8556 28.2262 15.9655 27.8821 15.9655C27.6551 15.9655 27.4721 15.9215 27.3366 15.8373C27.1938 15.7495 27.084 15.6323 26.9961 15.4822C26.9046 15.3211 26.8387 15.1344 26.8058 14.9258C26.7691 14.6951 26.7472 14.4535 26.7472 14.1972C26.7472 13.8384 26.7765 13.4431 26.8314 13.022C26.8863 12.601 26.9742 12.1763 27.095 11.759C27.2121 11.3453 27.3622 10.9426 27.5416 10.5619C27.7173 10.1884 27.9224 9.85528 28.1493 9.56972C28.369 9.29515 28.6289 9.07549 28.9108 8.91074C29.1854 8.75332 29.4893 8.67644 29.8187 8.67644C30.269 8.67644 30.6681 8.78627 31.0049 9.00593C31.3307 9.21461 31.6346 9.53311 31.9128 9.9468L31.5504 11.6638Z" fill="#EE122C"/>
<path d="M52.905 1.68754C52.938 1.47154 52.8208 1.28117 52.5938 1.175C52.4474 1.10544 52.235 1.06151 51.9495 1.04321C51.6969 1.0249 51.3564 1.01758 50.9354 1.01758C50.562 1.01758 50.2581 1.0249 50.0311 1.04687C49.7968 1.06517 49.6101 1.09446 49.4564 1.13473C49.277 1.18232 49.1452 1.24456 49.05 1.3251C48.9694 1.391 48.8999 1.47154 48.8303 1.56307L43.0423 9.61359L41.8122 6.08805C41.7756 5.9709 41.7317 5.86839 41.6731 5.78419C41.5925 5.6707 41.4607 5.59016 41.2814 5.54623C41.1496 5.51694 40.9775 5.49131 40.7469 5.48033C40.5309 5.46569 40.2343 5.45836 39.8536 5.45836C39.4216 5.45836 39.0701 5.46935 38.8065 5.49497C38.51 5.5206 38.2903 5.57185 38.1366 5.6524C37.8876 5.78419 37.8071 5.96724 37.7814 6.09904C37.7558 6.24914 37.7778 6.42487 37.8473 6.64086L39.8133 12.0811L29.7163 25.484C29.5918 25.6744 29.5259 25.8281 29.5039 25.9673C29.4747 26.1796 29.5772 26.3663 29.7858 26.4761C29.9286 26.553 30.13 26.6043 30.4045 26.6299C30.6498 26.6519 30.9757 26.6665 31.3637 26.6665C31.803 26.6665 32.1545 26.6555 32.4181 26.6372C32.6927 26.6189 32.9123 26.5896 33.0844 26.5494C33.2894 26.5018 33.4395 26.4359 33.542 26.348C33.6262 26.2748 33.7068 26.1833 33.7653 26.0917L42.0978 14.739L43.3828 18.4769C43.4084 18.5904 43.4487 18.6929 43.5072 18.7844C43.5841 18.9052 43.7123 18.9894 43.8916 19.048C44.0271 19.0919 44.2101 19.1212 44.4518 19.1395C44.6788 19.1578 44.979 19.1688 45.367 19.1688C45.7844 19.1688 46.1322 19.1578 46.4067 19.1322C46.7033 19.1066 46.9303 19.0553 47.0987 18.9821C47.3696 18.8613 47.4684 18.6855 47.5014 18.5611C47.5417 18.411 47.5343 18.2389 47.4684 18.0156L45.3524 12.1397L52.6597 2.19642C52.8062 1.9914 52.883 1.83032 52.905 1.68754Z" fill="#EE122C"/>
<path d="M71.3491 0.66612C71.1038 0.376902 70.7487 0.208496 70.368 0.208496H68.8377C68.2116 0.208496 67.6808 0.655137 67.5746 1.27019L65.6636 12.2642L60.9665 0.99561C60.7652 0.51602 60.3039 0.208496 59.784 0.208496H57.7961C57.1701 0.208496 56.6392 0.655137 56.5331 1.27019L53.6592 17.8142C53.5933 18.1877 53.6958 18.5684 53.9411 18.8576C54.1864 19.1468 54.5415 19.3152 54.9222 19.3152H56.4635C57.0895 19.3152 57.6204 18.8686 57.7265 18.2535L59.6339 7.2852L64.3237 18.5281C64.525 19.0077 64.9863 19.3152 65.5061 19.3152H67.5051C68.1311 19.3152 68.6619 18.8686 68.7681 18.2535L71.631 1.70951C71.6969 1.33608 71.5944 0.955339 71.3491 0.66612Z" fill="black"/>
<path d="M83.5731 12.4581L83.6537 11.8248C83.8807 9.81853 83.5182 8.13448 82.57 6.81652C81.6145 5.48758 80.1977 4.79565 78.3526 4.7627C77.0566 4.72975 75.8667 5.02995 74.8051 5.65598C73.7434 6.28201 72.8647 7.18628 72.1911 8.33949C71.5211 9.48904 71.1148 10.7704 70.983 12.1506L70.9464 12.6631C70.8402 13.9262 71.0269 15.0977 71.5028 16.1447C71.9788 17.1991 72.711 18.0411 73.6775 18.6452C74.6403 19.2493 75.7642 19.5605 77.009 19.5678C77.0529 19.5678 77.0932 19.5678 77.1371 19.5678C78.2427 19.5678 79.2971 19.3481 80.2673 18.9125C80.9262 18.6159 81.4937 18.2388 81.955 17.7922C82.4126 17.3456 82.4492 16.595 82.0392 16.0862L81.6841 15.6432C81.2411 15.094 80.465 14.9842 79.9158 15.3869C79.147 15.9507 78.2793 16.2289 77.3311 16.1997C76.5623 16.185 75.9766 15.9287 75.5336 15.4272C75.1272 14.9622 74.9185 14.3362 74.9185 13.5674H82.3064C82.9434 13.5747 83.4889 13.0951 83.5731 12.4581ZM76.5038 8.71657C76.9907 8.30654 77.5325 8.11251 78.1622 8.13081C78.6308 8.13814 79.0225 8.26993 79.3227 8.51888C79.6266 8.77149 79.8096 9.11562 79.8902 9.56958C79.9304 9.8588 79.9268 10.17 79.8792 10.4812L79.8353 10.6752H75.2554C75.6361 9.75629 76.0535 9.09732 76.5038 8.71657Z" fill="black"/>
<path d="M97.9023 5.47293C97.6607 5.18371 97.3055 5.01897 96.9285 5.0153L95.6691 5.01164C95.1126 5.00066 94.6367 5.35212 94.4536 5.86832L94.3475 6.16486C93.5896 5.26059 92.495 4.78466 91.0892 4.75171C91.0562 4.75171 91.0233 4.75171 90.9903 4.75171C89.244 4.75171 87.7723 5.43998 86.6154 6.79089C85.4512 8.15644 84.73 9.95398 84.4701 12.1323V12.136C84.4005 12.8499 84.3786 13.4832 84.4042 14.0141C84.4811 15.6322 84.9387 16.9721 85.7588 17.9862C86.5898 19.0186 87.7247 19.5495 89.1269 19.5678C90.2471 19.5898 91.2869 19.2237 92.2204 18.4585L92.1582 18.7111C91.9312 19.6264 91.4919 20.3439 90.8585 20.8455C90.2288 21.3434 89.4564 21.5813 88.5558 21.5447C87.7394 21.5228 87.0145 21.2628 86.3921 20.7759C85.843 20.3439 85.0412 20.4318 84.6056 20.9699L84.1882 21.4825C83.7489 22.0207 83.8148 22.8151 84.3346 23.2507C84.9753 23.7889 85.7551 24.2063 86.6521 24.4955C87.2634 24.6895 87.9297 24.7957 88.6363 24.8067C88.6912 24.8067 88.7498 24.8067 88.8047 24.8067C90.7267 24.8067 92.3669 24.2648 93.6848 23.1922C95.0467 22.0865 95.8668 20.5636 96.1194 18.6782L98.1805 6.50533C98.2501 6.13923 98.1439 5.76215 97.9023 5.47293ZM90.2105 16.207C89.6211 16.185 89.1891 15.958 88.8816 15.5187C88.5668 15.0684 88.4057 14.4497 88.4057 13.6846V13.6809C88.3983 13.3038 88.424 12.7986 88.4826 12.1872C88.64 10.9498 89.0317 9.943 89.6504 9.19982C90.2435 8.48959 90.9354 8.14179 91.7738 8.14179C91.8031 8.14179 91.8324 8.14179 91.858 8.14179C92.7659 8.17108 93.3736 8.53352 93.7214 9.24741L92.6597 15.0428C91.9349 15.8592 91.1478 16.2436 90.2105 16.207Z" fill="black"/>
<path d="M108.962 5.744C108.047 5.11431 106.949 4.78482 105.689 4.76652C103.705 4.71892 102.006 5.39255 100.641 6.7764C99.2788 8.15659 98.4734 10.0383 98.2464 12.3704C98.1256 13.6884 98.2794 14.9111 98.7077 16.0058C99.1397 17.1077 99.8206 17.9827 100.732 18.6051C101.644 19.2274 102.731 19.5533 103.972 19.5716C104.02 19.5716 104.071 19.5716 104.119 19.5716C106.074 19.5716 107.743 18.8796 109.083 17.5141C110.448 16.1193 111.247 14.2741 111.444 12.0299C111.565 10.6937 111.415 9.45991 110.99 8.36161C110.558 7.25599 109.877 6.37369 108.962 5.744ZM103.068 9.56608C103.665 8.59957 104.43 8.12731 105.404 8.12731C105.437 8.12731 105.47 8.12731 105.502 8.12731C106.129 8.14195 106.59 8.36893 106.923 8.81923C107.263 9.28052 107.454 9.91021 107.487 10.6863C107.527 12.3631 107.238 13.7359 106.626 14.7574C106.022 15.7641 105.228 16.2364 104.163 16.2035C103.544 16.1888 103.083 15.9692 102.746 15.5335C102.402 15.0905 102.222 14.4755 102.204 13.6957C102.149 11.9713 102.442 10.5802 103.068 9.56608Z" fill="black"/>
<path d="M122.603 14.1385H122.599L121.245 14.1422C120.758 14.1422 120.315 14.4314 120.117 14.8744C119.971 15.2002 119.758 15.4858 119.491 15.7127C119.077 16.0679 118.569 16.2289 117.943 16.2143C116.844 16.1923 116.269 15.4967 116.189 14.0982C116.156 13.4686 116.204 12.6851 116.328 11.7662C116.683 9.26936 117.661 8.09052 119.29 8.12713C119.89 8.16008 120.326 8.36143 120.622 8.74949C120.791 8.97282 120.915 9.24739 120.988 9.56956C121.124 10.1663 121.629 10.5837 122.215 10.5837H123.463C123.84 10.5837 124.199 10.4189 124.441 10.1297C124.686 9.83681 124.792 9.45607 124.726 9.07898C124.543 8.00997 124.104 7.09473 123.419 6.35887C122.467 5.33379 121.164 4.79928 119.55 4.76267C117.602 4.71508 115.94 5.3704 114.615 6.72863C113.297 8.07953 112.506 9.92834 112.272 12.2275L112.22 13.0915C112.184 15.0245 112.682 16.5987 113.692 17.7702C114.71 18.9454 116.105 19.5568 117.84 19.5824C117.899 19.5824 117.954 19.5861 118.012 19.5861C118.997 19.5861 119.945 19.3737 120.838 18.9491C121.787 18.4988 122.555 17.8654 123.123 17.06C123.408 16.6536 123.635 16.218 123.793 15.7603C123.921 15.3906 123.862 14.9915 123.628 14.6657C123.394 14.3362 123.009 14.1385 122.603 14.1385Z" fill="black"/>
<path d="M143.222 8.36137C142.793 7.25575 142.112 6.37345 141.197 5.7401C140.282 5.11041 139.184 4.78092 137.924 4.76261C135.944 4.71502 134.241 5.38864 132.876 6.7725C131.514 8.15269 130.708 10.0345 130.482 12.3665C130.361 13.6845 130.514 14.9073 130.943 16.0019C131.375 17.1039 132.056 17.9788 132.967 18.6012C133.879 19.2236 134.966 19.5494 136.207 19.5677C136.255 19.5677 136.306 19.5677 136.354 19.5677C138.309 19.5677 139.978 18.8758 141.318 17.5102C142.684 16.1154 143.482 14.2703 143.679 12.0261C143.8 10.6971 143.646 9.46333 143.222 8.36137ZM135.303 9.56584C135.9 8.59933 136.665 8.12707 137.639 8.12707C137.672 8.12707 137.705 8.12707 137.738 8.12707C138.364 8.14171 138.825 8.36869 139.158 8.81899C139.499 9.28028 139.689 9.90997 139.722 10.6861C139.762 12.3629 139.473 13.7357 138.862 14.7572C138.257 15.7639 137.463 16.2362 136.398 16.2033C135.779 16.1886 135.318 15.969 134.981 15.5333C134.637 15.0903 134.457 14.4753 134.439 13.6955C134.388 11.9711 134.681 10.58 135.303 9.56584Z" fill="black"/>
<path d="M130.306 6.07725C130.24 5.94911 130.115 5.85027 129.929 5.77705C129.782 5.71847 129.596 5.67454 129.361 5.64525C129.138 5.61596 128.856 5.60132 128.508 5.60132C128.157 5.60132 127.875 5.61596 127.641 5.64525C127.403 5.67454 127.201 5.71847 127.04 5.77339C126.857 5.83928 126.722 5.91616 126.627 6.01501C126.52 6.12118 126.451 6.24931 126.421 6.39209L124.39 18.4441C124.36 18.5978 124.375 18.7406 124.445 18.8651C124.514 18.9969 124.639 19.0957 124.829 19.1653C124.975 19.2202 125.158 19.2568 125.396 19.2824C125.62 19.3081 125.905 19.3191 126.246 19.3191C126.575 19.3191 126.861 19.3081 127.099 19.2824C127.348 19.2568 127.545 19.2202 127.703 19.169C127.886 19.1104 128.025 19.0335 128.124 18.931C128.23 18.8248 128.3 18.6967 128.329 18.5539L130.361 6.50192C130.39 6.3445 130.372 6.20538 130.306 6.07725Z" fill="black"/>
<path d="M127.864 4.31982C128.124 4.38572 128.45 4.41501 128.856 4.41501C129.27 4.41501 129.61 4.38572 129.892 4.31982C130.192 4.25392 130.452 4.13677 130.665 3.97203C130.881 3.80728 131.053 3.58762 131.177 3.31671C131.294 3.06776 131.389 2.76024 131.455 2.40512C131.525 2.05366 131.55 1.76079 131.536 1.51184C131.518 1.22628 131.43 0.984653 131.269 0.794281C131.111 0.60757 130.881 0.472113 130.588 0.395233C130.32 0.325674 129.995 0.292725 129.588 0.292725C129.182 0.292725 128.83 0.325674 128.548 0.395233C128.248 0.468452 127.992 0.589265 127.78 0.757671C127.567 0.926077 127.395 1.14574 127.271 1.40933C127.154 1.65462 127.058 1.95482 126.993 2.29529C126.916 2.65407 126.886 2.96525 126.905 3.22152C126.927 3.51074 127.022 3.75237 127.179 3.93542C127.34 4.11846 127.571 4.25026 127.864 4.31982Z" fill="black"/>
<path d="M156.171 8.05767C155.933 7.27788 155.482 6.60426 154.831 6.05511C153.831 5.21674 152.513 4.78109 150.906 4.76278C149.288 4.74448 147.893 5.16549 146.747 6.01484C145.587 6.87517 144.975 8.00276 144.928 9.36465C144.847 11.3819 146.253 12.8023 149.109 13.5895L150.273 13.886C151.744 14.3033 151.616 14.955 151.572 15.1673V15.171C151.496 15.5847 151.269 15.9069 150.877 16.1558C150.474 16.4084 149.951 16.5402 149.325 16.5402C148.31 16.5292 147.706 16.1595 147.476 15.4126C147.311 14.8781 146.846 14.5157 146.319 14.512L144.942 14.501C144.939 14.501 144.935 14.501 144.935 14.501C144.554 14.501 144.192 14.6804 143.965 14.9843C143.738 15.2808 143.668 15.6543 143.771 16.0057C144.016 16.8514 144.503 17.5873 145.217 18.1913C146.275 19.0846 147.615 19.5496 149.193 19.5679C149.262 19.5679 149.332 19.5715 149.401 19.5715C150.394 19.5715 151.353 19.3994 152.253 19.0553C153.227 18.6856 154.007 18.1511 154.571 17.4701C155.138 16.7818 155.442 15.9618 155.468 15.0429C155.493 14.2558 155.329 13.5638 154.97 12.9964C154.618 12.4326 154.109 11.9567 153.458 11.5759C152.817 11.2025 151.887 10.8693 150.69 10.5838L150.178 10.4703C148.596 10.0859 148.717 9.44153 148.757 9.22919C148.841 8.79353 149.068 8.45672 149.445 8.20045C149.83 7.94052 150.291 7.80873 150.815 7.80873C151.664 7.81971 152.162 8.13822 152.338 8.78255C152.473 9.27679 152.942 9.62458 153.48 9.62824L155.021 9.6319H155.025C155.409 9.6319 155.757 9.45617 155.988 9.14865C156.215 8.83381 156.284 8.43476 156.171 8.05767Z" fill="black"/>
</svg>
