<svg width="20" height="20" viewBox="0 0 20 20" fill="none" xmlns="http://www.w3.org/2000/svg">
<path fill-rule="evenodd" clip-rule="evenodd" d="M10.0001 0C4.36624 0 0 4.1268 0 9.7003C0 12.6158 1.19518 15.135 3.14088 16.8754C3.30386 17.0223 3.40245 17.2255 3.4105 17.4448L3.46482 19.2235C3.48293 19.7909 4.06845 20.1592 4.58757 19.9318L6.5715 19.0565C6.74051 18.9821 6.92764 18.968 7.1047 19.0163C8.01618 19.2678 8.98802 19.4006 10.0001 19.4006C15.634 19.4006 20.0002 15.2738 20.0002 9.7003C20.0002 4.1268 15.634 0 10.0001 0Z" fill="url(#paint0_linear)"/>
<path fill-rule="evenodd" clip-rule="evenodd" d="M3.99587 12.5375L6.93353 7.87747C7.40034 7.13702 8.40236 6.95191 9.10257 7.47706L11.4386 9.22959C11.6539 9.39056 11.9477 9.38855 12.1609 9.22758L15.3159 6.83319C15.7364 6.51327 16.2878 7.0183 16.004 7.46499L13.0684 12.123C12.6016 12.8634 11.5996 13.0485 10.8994 12.5234L8.56333 10.7709C8.34803 10.6099 8.05427 10.6119 7.84098 10.7729L4.68401 13.1693C4.26348 13.4892 3.71217 12.9842 3.99587 12.5375Z" fill="white"/>
<defs>
<linearGradient id="paint0_linear" x1="10.0001" y1="0" x2="10.0001" y2="19.9999" gradientUnits="userSpaceOnUse">
<stop stop-color="#00B2FF"/>
<stop offset="1" stop-color="#006AFF"/>
</linearGradient>
</defs>
</svg>
