<svg width="20" height="20" viewBox="0 0 20 20" fill="none" xmlns="http://www.w3.org/2000/svg">
<path d="M10 20C15.5228 20 20 15.5228 20 10C20 4.47715 15.5228 0 10 0C4.47715 0 0 4.47715 0 10C0 15.5228 4.47715 20 10 20Z" fill="#1DA1F2"/>
<path d="M8.17059 15.2736C12.6046 15.2736 15.0296 11.6001 15.0296 8.41461C15.0296 8.31011 15.0276 8.20611 15.0226 8.10311C15.4931 7.76261 15.9026 7.33811 16.2251 6.85511C15.7931 7.04711 15.3281 7.17611 14.8406 7.23461C15.3381 6.93611 15.7206 6.46411 15.9006 5.90111C15.4346 6.17711 14.9191 6.37811 14.3701 6.48611C13.9301 6.01761 13.3036 5.72461 12.6106 5.72461C11.2791 5.72461 10.1996 6.80411 10.1996 8.13511C10.1996 8.32411 10.2206 8.50811 10.2621 8.68461C8.25859 8.58411 6.48209 7.62461 5.29309 6.16611C5.08609 6.52211 4.96659 6.93611 4.96659 7.37761C4.96659 8.21411 5.39209 8.95211 6.03959 9.38411C5.64409 9.37211 5.27259 9.26311 4.94759 9.08261C4.94709 9.09261 4.94709 9.10261 4.94709 9.11311C4.94709 10.2806 5.77809 11.2556 6.88109 11.4766C6.67859 11.5316 6.46559 11.5616 6.24559 11.5616C6.09009 11.5616 5.93909 11.5461 5.79259 11.5181C6.09959 12.4756 6.98959 13.1726 8.04459 13.1926C7.21959 13.8391 6.18009 14.2246 5.05059 14.2246C4.85609 14.2246 4.66409 14.2136 4.47559 14.1911C5.54209 14.8746 6.80859 15.2736 8.17059 15.2736Z" fill="white"/>
</svg>
