<svg width="20" height="20" viewBox="0 0 20 20" fill="none" xmlns="http://www.w3.org/2000/svg">
<path d="M19.9379 16.6405C19.9465 16.6216 19.9543 16.6027 19.9612 16.5834C19.9686 16.5632 19.9743 16.5435 19.9796 16.5229C19.9841 16.504 19.9878 16.4851 19.9902 16.4662C19.9939 16.4435 19.9959 16.4213 19.9971 16.3986C19.9976 16.3889 20 16.3793 20 16.3696V3.63041C20 3.62495 19.9988 3.61991 19.9984 3.61445C19.998 3.59093 19.9947 3.56741 19.9914 3.54389C19.989 3.52583 19.9873 3.50777 19.9833 3.49013C19.9784 3.46997 19.9718 3.45023 19.9649 3.43007C19.9584 3.41033 19.953 3.39059 19.9445 3.37169C19.9371 3.35531 19.9281 3.33977 19.9192 3.32381C19.9077 3.30281 19.8963 3.28223 19.8828 3.26291C19.88 3.25871 19.8779 3.25409 19.8746 3.24947C19.8669 3.23897 19.8575 3.23142 19.8493 3.22134C19.8346 3.2037 19.8199 3.18648 19.804 3.17094C19.7893 3.15708 19.7738 3.14448 19.7583 3.1323C19.7428 3.12012 19.7276 3.10794 19.7109 3.09744C19.6933 3.0861 19.6746 3.07644 19.6558 3.06678C19.639 3.05838 19.6231 3.04998 19.6056 3.04326C19.5851 3.03528 19.5643 3.02898 19.5435 3.02352C19.5263 3.0189 19.5096 3.01428 19.4924 3.01092C19.4684 3.00672 19.4443 3.00504 19.4198 3.00336C19.4087 3.00294 19.3981 3 19.3867 3H0.613311C0.59902 3 0.585953 3.00336 0.571662 3.0042C0.551654 3.00546 0.531646 3.00672 0.511638 3.0105C0.490813 3.01386 0.470396 3.01932 0.450388 3.0252C0.432422 3.03024 0.414863 3.03528 0.397305 3.042C0.377297 3.04998 0.358922 3.05922 0.33973 3.06846C0.322989 3.07728 0.306656 3.0861 0.290323 3.09618C0.272765 3.10752 0.256431 3.12012 0.23969 3.13314C0.224581 3.1449 0.209881 3.15708 0.195998 3.17052C0.179665 3.18606 0.165373 3.20286 0.151082 3.2205C0.142507 3.23058 0.132707 3.23855 0.124949 3.24905C0.121682 3.25367 0.119641 3.25871 0.116374 3.26333C0.103307 3.28181 0.0922823 3.30239 0.0812574 3.32255C0.0722742 3.33893 0.0628827 3.35489 0.0555327 3.37169C0.0469578 3.39059 0.041241 3.41033 0.0347077 3.43049C0.0281744 3.44981 0.0216416 3.46913 0.0167417 3.48929C0.0130667 3.50735 0.0110249 3.52625 0.00857489 3.54515C0.00530825 3.56825 0.00244986 3.59051 0.0016332 3.61361C0.0016332 3.61907 0 3.62453 0 3.63041V16.3696C0 16.3797 0.00244997 16.3893 0.0028583 16.399C0.00408329 16.4217 0.00612524 16.4431 0.00939188 16.4658C0.0122502 16.4851 0.0159251 16.504 0.0208251 16.5229C0.025725 16.5435 0.0318495 16.5632 0.0387911 16.5834C0.0457327 16.6027 0.0530825 16.6216 0.0616574 16.6401C0.0702324 16.6581 0.079216 16.6758 0.0894242 16.693C0.100041 16.7119 0.111883 16.7295 0.124541 16.7467C0.130666 16.7556 0.134749 16.7644 0.141691 16.7728C0.146999 16.7795 0.154348 16.7841 0.159657 16.7908C0.177623 16.8114 0.196815 16.8299 0.217639 16.8475C0.230298 16.8589 0.242956 16.8706 0.256022 16.8803C0.278072 16.8967 0.302164 16.9105 0.326256 16.924C0.339322 16.9315 0.351572 16.9395 0.365047 16.9458C0.394446 16.9593 0.425888 16.9689 0.457738 16.9773C0.46713 16.9798 0.475704 16.984 0.485096 16.9861C0.526337 16.995 0.568803 17 0.612903 17H19.3871C19.4308 17 19.4737 16.995 19.5149 16.9861C19.5247 16.9836 19.5337 16.9794 19.5431 16.9769C19.5745 16.9681 19.6051 16.9593 19.6345 16.9458C19.6484 16.9395 19.6611 16.9307 19.675 16.9231C19.6991 16.9101 19.7219 16.8967 19.744 16.8803C19.7575 16.8706 19.7697 16.8589 19.7828 16.8475C19.8036 16.8295 19.8228 16.8106 19.8412 16.79C19.8469 16.7837 19.853 16.7795 19.8587 16.7728C19.8653 16.7648 19.8689 16.756 19.8751 16.7476C19.8881 16.7299 19.9004 16.7115 19.9114 16.6921C19.9208 16.6753 19.9298 16.6581 19.9379 16.6405ZM1.22581 4.89836L7.42466 9.72869L1.22581 15.0273V4.89836ZM10 10.1546L2.4361 4.26039H17.5643L10 10.1546ZM8.42671 10.5095L9.62964 11.4469C9.63618 11.4519 9.64312 11.4532 9.64965 11.4574C9.69171 11.4876 9.73622 11.5116 9.78359 11.53C9.7991 11.5363 9.8138 11.5418 9.82973 11.5468C9.88444 11.5632 9.94038 11.5737 9.99714 11.5741C9.99796 11.5741 9.99837 11.5745 9.99918 11.5745H10H10.0004C10.0008 11.5745 10.0016 11.5741 10.0025 11.5741C10.0596 11.5737 10.1151 11.5632 10.1699 11.5468C10.1858 11.5418 10.2009 11.5363 10.2164 11.53C10.263 11.5116 10.3071 11.488 10.3483 11.4582C10.3557 11.4532 10.3634 11.4515 10.3699 11.4469L11.5729 10.5095L17.6917 15.7396H2.30829L8.42671 10.5095ZM12.5762 9.72827L18.775 4.89836V15.0269L12.5762 9.72827Z" fill="black"/>
</svg>
