<svg width="22" height="20" viewBox="0 0 22 20" fill="none" xmlns="http://www.w3.org/2000/svg">
<path d="M12.5714 17.3684C3.19521 17.3684 1.15235 14.8421 0.314255 13.7368C0.104731 13.5263 -3.05176e-05 13.2105 -3.05176e-05 12.8947C-3.05176e-05 12.1579 0.57616 11.5789 1.30949 11.5789C1.78092 11.5789 3.14283 11.5789 3.14283 9V8.68421C3.14283 3.89474 7.38568 0 12.5714 0C17.7571 0 22 3.89474 22 8.68421C22 13.4737 17.7571 17.3684 12.5714 17.3684Z" fill="#37474F"/>
<path d="M7.07133 20.0001C8.37314 20.0001 9.42847 18.9397 9.42847 17.6316C9.42847 16.3236 8.37314 15.2632 7.07133 15.2632C5.76951 15.2632 4.71419 16.3236 4.71419 17.6316C4.71419 18.9397 5.76951 20.0001 7.07133 20.0001Z" fill="#37474F"/>
<path d="M15.4525 20.0001C16.7543 20.0001 17.8097 18.9397 17.8097 17.6316C17.8097 16.3236 16.7543 15.2632 15.4525 15.2632C14.1507 15.2632 13.0954 16.3236 13.0954 17.6316C13.0954 18.9397 14.1507 20.0001 15.4525 20.0001Z" fill="#37474F"/>
<path d="M12.5713 16.3159C17.1808 16.3159 20.9522 12.8948 20.9522 8.68431C20.9522 4.47379 17.1808 1.05273 12.5713 1.05273C7.96174 1.05273 4.19031 4.47379 4.19031 8.68431V9.0001C4.19031 12.2633 2.19984 12.6317 1.30936 12.6317C1.15222 12.6317 1.04745 12.7369 1.04745 12.8948C1.04745 12.9475 1.04745 13.0001 1.09984 13.0527C1.88555 14.0527 3.6665 16.3159 12.5713 16.3159Z" fill="white"/>
<path d="M15.1907 7.89433C15.7693 7.89433 16.2383 7.42305 16.2383 6.84169C16.2383 6.26034 15.7693 5.78906 15.1907 5.78906C14.6121 5.78906 14.1431 6.26034 14.1431 6.84169C14.1431 7.42305 14.6121 7.89433 15.1907 7.89433Z" fill="#37474F"/>
<path d="M9.9523 7.89433C10.5309 7.89433 10.9999 7.42305 10.9999 6.84169C10.9999 6.26034 10.5309 5.78906 9.9523 5.78906C9.37371 5.78906 8.90468 6.26034 8.90468 6.84169C8.90468 7.42305 9.37371 7.89433 9.9523 7.89433Z" fill="#37474F"/>
<path d="M12.5715 12.6313C10.0572 12.6313 9.06195 10.7892 8.90481 9.84185C8.85243 9.57869 9.06195 9.2629 9.32386 9.21027C9.58576 9.15764 9.90005 9.36816 9.95243 9.63132C9.95243 9.68395 10.3191 11.5787 12.5715 11.5787C14.8239 11.5787 15.1905 9.73658 15.1905 9.63132C15.2429 9.36816 15.5048 9.15764 15.8191 9.21027C16.081 9.2629 16.2905 9.52606 16.2381 9.78921C16.081 10.7892 15.0858 12.6313 12.5715 12.6313Z" fill="#37474F"/>
<path d="M7.07111 18.4207C7.50505 18.4207 7.85683 18.0673 7.85683 17.6313C7.85683 17.1953 7.50505 16.8418 7.07111 16.8418C6.63718 16.8418 6.2854 17.1953 6.2854 17.6313C6.2854 18.0673 6.63718 18.4207 7.07111 18.4207Z" fill="#607D8B"/>
<path d="M15.4521 18.4207C15.886 18.4207 16.2378 18.0673 16.2378 17.6313C16.2378 17.1953 15.886 16.8418 15.4521 16.8418C15.0182 16.8418 14.6664 17.1953 14.6664 17.6313C14.6664 18.0673 15.0182 18.4207 15.4521 18.4207Z" fill="#607D8B"/>
</svg>
