<svg width="20" height="20" viewBox="0 0 20 20" fill="none" xmlns="http://www.w3.org/2000/svg">
<path d="M0 20L1.40673 14.8645C0.539156 13.3612 0.0827198 11.6561 0.0832122 9.90965C0.0851818 4.4457 4.53236 0 9.9968 0C12.6488 0.000984761 15.1382 1.03351 17.0093 2.90652C18.8813 4.77954 19.9114 7.26951 19.9104 9.91753C19.9084 15.382 15.4607 19.8282 9.99729 19.8282C9.9968 19.8282 9.99778 19.8282 9.99729 19.8282H9.99286C8.33354 19.8277 6.70327 19.4111 5.25567 18.6218L0 20Z" fill="url(#paint0_linear)"/>
<path fill-rule="evenodd" clip-rule="evenodd" d="M7.43223 5.61508C7.24021 5.18769 7.03784 5.17932 6.85467 5.17193C6.70499 5.16553 6.53413 5.16602 6.36278 5.16602C6.19193 5.16602 5.91373 5.23053 5.67837 5.48706C5.44302 5.74359 4.78027 6.36448 4.78027 7.62694C4.78027 8.8894 5.70004 10.1095 5.82806 10.2809C5.95657 10.4517 7.60309 13.1254 10.2112 14.1539C12.3787 15.0087 12.8199 14.8388 13.2906 14.796C13.7613 14.7532 14.8086 14.1756 15.0228 13.5764C15.2365 12.9771 15.2365 12.4636 15.1725 12.3563C15.1084 12.2494 14.9371 12.1854 14.6806 12.0569C14.424 11.9284 13.1626 11.3075 12.9272 11.2223C12.6918 11.1366 12.521 11.0938 12.3496 11.3508C12.1788 11.6073 11.6869 12.1854 11.5372 12.3563C11.3875 12.5276 11.2378 12.5493 10.9813 12.4208C10.7248 12.2922 9.89808 12.0214 8.91775 11.1475C8.15505 10.4675 7.64002 9.62748 7.49033 9.37046C7.34065 9.11393 7.47409 8.97459 7.60309 8.84706C7.71831 8.73234 7.85962 8.54769 7.98813 8.39752C8.11615 8.24783 8.15899 8.14099 8.24466 7.96964C8.33034 7.79829 8.2875 7.64861 8.22349 7.5201C8.15899 7.39158 7.66021 6.12223 7.43223 5.61508Z" fill="white"/>
<defs>
<linearGradient id="paint0_linear" x1="9.95528" y1="20.0001" x2="9.95528" y2="-7.86789e-05" gradientUnits="userSpaceOnUse">
<stop stop-color="#20B038"/>
<stop offset="1" stop-color="#60D66A"/>
</linearGradient>
</defs>
</svg>
